<?xml version="1.0" standalone="no"?>
<!DOCTYPE svg PUBLIC "-//W3C//DTD SVG 20010904//EN"
 "http://www.w3.org/TR/2001/REC-SVG-20010904/DTD/svg10.dtd">
<svg version="1.0" xmlns="http://www.w3.org/2000/svg"
 width="512.000000pt" height="512.000000pt" viewBox="0 0 512.000000 512.000000"
 preserveAspectRatio="xMidYMid meet">

<g transform="translate(0.000000,512.000000) scale(0.100000,-0.100000)"
fill="#000000" stroke="none">
<path d="M2440 4963 c-703 -40 -1375 -246 -1893 -579 l-67 -44 0 -144 0 -144
108 -68 c59 -37 188 -110 288 -161 l181 -93 124 50 c664 269 1373 360 2054
264 253 -36 584 -119 807 -203 l108 -41 87 21 c132 32 216 24 327 -29 102 -49
159 -92 180 -137 29 -60 -1 -88 -81 -78 l-50 5 -6 -298 c-6 -304 -18 -432 -68
-729 -69 -411 -217 -831 -426 -1215 l-52 -96 30 -11 c29 -11 31 -10 64 35 162
223 362 627 476 962 183 535 264 1048 276 1740 l6 356 -128 83 c-550 361
-1331 567 -2115 559 -96 -1 -200 -3 -230 -5z m221 -410 l-3 -213 46 0 46 0 0
158 c0 86 3 181 6 210 l7 52 40 0 40 0 -6 -167 c-4 -91 -7 -204 -7 -250 l0
-83 -40 0 c-22 0 -40 5 -40 10 0 7 -6 7 -19 0 -35 -18 -102 -12 -128 12 -22
21 -23 26 -23 208 0 103 3 208 6 234 7 47 7 47 43 44 l36 -3 -4 -212z m-210
178 c16 -16 29 -40 29 -53 0 -13 7 -99 15 -193 20 -237 22 -221 -22 -228 -20
-4 -38 -5 -40 -4 -2 3 -33 369 -33 399 0 15 -9 18 -46 18 l-46 0 6 -57 c15
-146 27 -345 22 -358 -6 -15 -76 -22 -76 -7 0 4 -7 88 -15 187 -8 99 -15 190
-15 203 0 19 -5 22 -38 22 -21 0 -41 -2 -43 -4 -2 -2 3 -96 12 -208 8 -111 13
-206 11 -210 -2 -5 -20 -8 -41 -8 l-38 0 -12 153 c-6 83 -14 195 -18 248 l-6
96 37 5 c21 2 39 0 42 -4 3 -4 14 -4 24 2 25 13 107 13 115 -1 5 -7 12 -5 23
5 16 13 46 21 100 25 14 0 35 -11 53 -28z m561 -58 c-2 -46 -1 -83 2 -83 2 0
25 36 50 79 l47 79 42 -5 c23 -3 44 -7 46 -9 2 -2 -22 -44 -53 -94 -31 -49
-56 -92 -56 -95 0 -3 7 -5 15 -5 9 0 27 -11 41 -25 25 -25 26 -28 19 -123 -10
-153 -10 -152 -57 -152 l-40 0 6 68 c3 37 7 85 8 107 l3 40 -41 3 c-41 3 -41
2 -47 -35 -4 -21 -7 -58 -7 -83 0 -71 -9 -90 -39 -90 -52 0 -52 0 -36 211 8
107 17 218 21 247 l6 53 36 -3 37 -3 -3 -82z m422 35 c50 -6 95 -15 100 -19 5
-4 5 -24 2 -44 -7 -35 -8 -35 -42 -29 -18 3 -34 5 -34 3 -1 -21 -60 -412 -62
-414 -9 -7 -78 9 -78 19 0 6 13 99 29 206 30 209 30 210 -23 210 -24 0 -28 3
-22 23 3 12 6 30 6 40 0 20 5 20 124 5z m-1533 -18 c21 0 40 -56 74 -220 20
-96 37 -188 37 -203 2 -42 -28 -63 -112 -80 -66 -14 -78 -14 -98 -1 -30 20
-33 29 -77 242 l-38 183 20 27 c15 20 37 31 89 44 38 9 75 14 82 12 8 -2 18
-4 23 -4z m1807 -35 c3 -2 -79 -410 -95 -472 -5 -21 -10 -23 -37 -17 -17 3
-34 9 -39 13 -5 5 52 312 88 469 5 20 10 22 43 16 20 -4 38 -8 40 -9z m-2126
-52 c16 -18 118 -374 118 -409 -1 -37 -29 -56 -126 -84 -54 -16 -99 -28 -100
-27 -5 7 -133 481 -130 484 8 8 172 51 197 52 14 1 33 -7 41 -16z m2495 -48
c76 -24 82 -28 93 -61 7 -19 10 -37 8 -39 -2 -3 -40 6 -84 20 -43 14 -80 25
-82 25 -3 0 -20 -45 -28 -74 -5 -20 1 -25 56 -45 50 -18 64 -29 78 -57 16 -34
15 -37 -17 -134 -35 -107 -53 -130 -106 -130 -42 0 -119 27 -139 49 -20 22
-30 72 -18 90 15 21 70 5 74 -22 4 -28 71 -56 92 -38 17 14 51 134 43 154 -7
19 -87 34 -96 18 -4 -7 -17 -7 -36 -2 -37 10 -37 17 12 168 29 90 39 112 52
109 9 -3 53 -17 98 -31z m-2748 -257 c45 -127 78 -235 73 -240 -4 -4 -21 -10
-38 -14 l-31 -6 -81 231 c-45 128 -82 234 -82 237 0 7 42 23 61 23 12 1 36
-56 98 -231z m3168 95 c11 -4 28 -71 20 -80 -3 -2 -37 9 -77 26 -40 17 -75 31
-79 31 -9 0 -41 -66 -41 -83 0 -7 20 -20 45 -31 96 -39 104 -86 39 -221 -49
-100 -72 -113 -154 -84 -71 25 -104 58 -104 104 0 19 5 40 10 45 16 16 62 -8
66 -33 3 -24 62 -62 83 -53 18 6 77 135 71 152 -8 20 -84 40 -98 26 -8 -8 -18
-7 -39 4 -16 8 -29 17 -29 20 0 6 87 208 101 236 8 16 17 14 92 -18 45 -20 87
-38 94 -41z m-3426 47 c16 -9 55 -79 47 -85 -2 -1 -17 -10 -34 -18 -31 -16
-33 -16 -46 5 -13 20 -17 21 -47 9 -17 -8 -34 -17 -37 -22 -4 -6 17 -60 30
-76 1 -1 44 -11 96 -23 52 -12 99 -25 105 -30 7 -5 24 -41 40 -79 39 -99 33
-114 -62 -157 -95 -44 -120 -42 -150 11 -13 22 -23 45 -23 50 0 14 73 41 77
29 12 -33 20 -36 54 -19 19 10 35 19 37 20 9 8 -29 74 -45 78 -10 3 -52 13
-93 22 -41 10 -82 24 -91 32 -9 7 -29 43 -44 79 -38 89 -31 109 55 151 69 34
100 39 131 23z"/>
<path d="M1820 4603 c-14 -3 -29 -8 -33 -13 -5 -4 6 -80 24 -169 l33 -161 35
6 c20 4 39 9 43 13 4 3 -6 69 -23 146 -39 188 -38 185 -47 184 -4 -1 -18 -4
-32 -6z"/>
<path d="M1470 4521 c-17 -5 -24 -13 -22 -27 4 -29 79 -294 85 -300 9 -9 77 8
77 19 0 6 -19 80 -41 164 -44 162 -43 160 -99 144z"/>
<path d="M140 4140 c0 -5 48 -74 107 -152 164 -219 426 -469 651 -622 39 -27
70 -51 68 -53 -6 -6 -166 66 -301 135 -71 37 -193 109 -269 159 -77 51 -142
91 -144 88 -8 -7 121 -193 215 -310 106 -132 268 -297 381 -384 45 -36 81 -66
79 -67 -1 -1 -110 35 -241 82 -131 47 -243 83 -248 82 -23 -8 175 -226 305
-336 214 -181 449 -297 704 -349 104 -21 504 -26 523 -7 8 8 -17 13 -92 18
-279 19 -548 111 -776 263 -45 31 -81 57 -79 59 1 2 63 -15 137 -36 74 -21
194 -51 265 -66 117 -25 151 -27 350 -28 212 -1 313 9 385 37 24 9 24 10 5 17
-11 5 -40 9 -65 9 -60 1 -285 35 -401 61 -293 65 -566 203 -749 380 l-85 82
55 -32 c304 -174 673 -277 1005 -280 204 -3 250 -1 239 9 -5 6 -52 24 -104 41
-133 44 -355 154 -480 237 -93 62 -199 143 -188 143 3 0 37 -11 77 -25 122
-43 343 -93 488 -111 208 -25 539 -9 601 30 7 4 31 35 54 69 23 34 99 120 170
190 70 71 128 130 128 131 0 2 -53 -24 -117 -56 -122 -61 -220 -96 -363 -130
-110 -25 -416 -36 -557 -19 -445 55 -1011 291 -1585 662 -76 49 -140 89 -143
89 -3 0 -5 -4 -5 -10z"/>
<path d="M3471 3821 c-16 -30 -95 -73 -229 -125 -229 -89 -383 -220 -541 -461
-36 -55 -80 -114 -98 -131 -18 -17 -33 -39 -33 -48 0 -9 -22 -46 -49 -81 -125
-163 -129 -338 -9 -457 43 -43 124 -91 139 -82 4 2 -5 33 -22 67 -21 46 -29
77 -29 119 0 56 1 57 53 102 l52 46 7 -111 c3 -61 9 -113 12 -116 3 -3 59 48
123 113 121 122 182 166 295 212 114 46 240 31 311 -36 120 -113 90 -317 -65
-457 -28 -25 -48 -49 -44 -52 3 -4 36 0 71 9 36 8 65 13 65 10 0 -11 -117
-146 -161 -186 -68 -61 -147 -112 -213 -137 -31 -12 -53 -25 -51 -30 3 -4 26
-11 50 -15 l45 -6 -22 -40 c-26 -45 -62 -68 -108 -68 -75 0 -125 -43 -193
-165 -93 -169 -137 -143 -308 185 -46 89 -98 178 -115 197 -27 33 -35 36 -76
35 -25 -1 -64 5 -88 13 -64 22 -121 19 -163 -9 l-35 -24 -33 35 c-48 49 -104
75 -161 75 -26 0 -48 2 -48 4 0 9 61 34 83 34 13 0 48 -18 78 -41 45 -33 60
-40 89 -36 19 2 93 -2 163 -10 70 -8 140 -13 155 -11 27 3 27 3 -13 27 -22 14
-73 53 -113 88 -93 80 -124 97 -171 89 -20 -3 -59 -6 -88 -5 -103 0 -184 -42
-213 -111 -12 -28 -16 -30 -65 -30 -114 0 -269 -44 -397 -112 -72 -38 -183
-139 -223 -202 -16 -25 -32 -46 -36 -46 -19 0 -116 313 -161 520 -17 80 -35
162 -40 182 -7 30 -24 49 -91 101 -45 36 -97 79 -116 97 l-34 31 7 -43 c4 -24
20 -92 37 -153 83 -299 163 -526 263 -745 l62 -135 -25 -65 c-22 -58 -25 -80
-25 -215 -1 -129 2 -160 22 -222 23 -75 29 -81 63 -63 17 10 18 13 5 38 -28
55 -41 139 -41 262 1 175 5 179 89 86 l67 -75 11 -123 c6 -68 11 -124 12 -125
1 -1 78 22 171 52 l170 53 -3 43 c-1 24 -12 63 -22 87 -24 53 -14 51 35 -7 29
-36 36 -51 33 -78 -2 -18 -4 -33 -3 -33 0 0 61 15 135 34 232 59 573 108 843
122 123 7 127 8 127 30 0 22 1 22 31 7 44 -22 99 -12 177 35 37 22 76 41 87
43 11 1 67 -1 125 -5 343 -26 639 97 936 386 l100 98 -8 -67 c-27 -231 -148
-390 -341 -451 -34 -11 -78 -25 -97 -31 -30 -9 -24 -10 40 -5 110 8 194 30
272 71 117 61 174 145 258 382 56 156 95 229 189 351 30 38 91 363 106 565 l6
80 -41 -45 c-22 -25 -82 -106 -132 -180 -50 -74 -88 -128 -85 -120 16 40 69
219 101 340 20 74 49 162 66 195 16 33 28 61 26 62 -1 1 -27 -13 -57 -32 -80
-52 -153 -76 -244 -81 l-80 -4 70 33 c99 48 184 114 227 178 23 33 55 104 81
182 51 150 72 177 134 177 53 0 55 14 6 39 -102 52 -237 65 -383 37 -41 -8
-142 -20 -225 -26 -82 -7 -167 -16 -187 -20 -21 -4 -38 -6 -38 -4 0 2 31 19
68 38 64 32 100 61 91 71 -3 2 -43 -2 -89 -9 -47 -8 -126 -19 -177 -25 -107
-13 -216 -48 -285 -90 -26 -17 -48 -28 -48 -26 0 3 33 29 73 59 66 50 107 98
107 125 0 18 -18 13 -29 -8z m114 -149 c-6 -5 -33 -27 -62 -51 -28 -23 -74
-72 -101 -109 -80 -110 -80 -115 0 -47 62 54 128 88 218 112 56 16 101 18 320
15 140 -1 277 2 305 7 27 5 51 8 53 6 5 -4 -124 -210 -161 -258 -16 -20 -50
-50 -75 -65 -59 -34 -138 -36 -267 -4 -180 43 -352 39 -514 -14 -80 -26 -194
-78 -151 -69 140 31 190 37 300 37 253 1 402 -71 444 -213 34 -113 17 -196
-70 -350 -64 -113 -88 -175 -82 -207 2 -11 15 4 36 41 33 59 79 99 150 131 61
28 75 18 67 -47 -31 -227 -243 -451 -544 -574 -198 -80 -198 -76 -19 99 86 84
169 171 183 192 28 44 33 102 10 132 -23 31 -18 56 35 159 45 88 50 104 50
164 0 140 -89 240 -275 307 -64 23 -209 49 -241 42 -12 -2 13 -16 63 -37 95
-38 132 -68 67 -54 -21 4 -67 8 -101 8 -55 -1 -67 -5 -100 -33 -81 -68 -170
-97 -208 -68 -20 16 -19 16 13 46 29 27 30 30 12 30 -12 0 -30 -5 -41 -10 -29
-16 -24 5 8 35 34 30 29 31 -34 4 -52 -22 -110 -19 -120 7 -9 24 15 41 65 47
37 4 53 12 76 39 15 18 30 28 32 22 3 -6 11 -20 19 -30 13 -17 14 -14 8 28 -5
40 -1 55 26 102 39 70 40 91 1 46 l-29 -35 -1 31 c0 17 15 54 35 88 19 32 35
61 35 64 0 12 -170 -162 -243 -247 -49 -57 -73 -79 -75 -68 -6 30 52 120 133
205 99 105 353 299 333 255 -2 -5 -17 -35 -34 -68 -35 -67 -57 -135 -44 -135
5 0 22 17 37 37 38 50 163 147 237 185 101 51 256 101 221 70z m-687 -466 c4
-63 -17 -96 -61 -96 -41 0 -62 13 -54 34 5 13 11 14 31 4 20 -8 29 -8 41 2 18
15 20 51 3 68 -8 8 -8 15 2 27 21 26 35 12 38 -39z m-249 -232 c12 -15 21 -35
21 -45 0 -11 5 -19 10 -19 6 0 10 7 10 15 0 24 46 65 73 65 13 0 32 -9 42 -20
16 -18 16 -21 2 -44 -9 -13 -51 -52 -94 -87 -140 -112 -173 -148 -173 -190 0
-20 7 -55 15 -78 22 -63 -8 -55 -42 12 -55 106 -28 273 59 372 22 25 43 45 48
45 5 0 18 -12 29 -26z m269 -94 c17 -11 32 -23 32 -26 0 -4 -29 -33 -63 -65
-42 -38 -76 -81 -100 -126 -34 -64 -36 -66 -42 -40 -14 55 25 178 76 240 35
42 51 45 97 17z m-828 -585 c0 -20 -22 -65 -31 -65 -8 0 -4 44 7 78 5 16 24 6
24 -13z m-80 -11 c0 -25 -2 -26 -32 -19 -18 4 -55 11 -83 15 -47 6 -48 7 -25
18 14 6 51 11 83 11 55 1 57 0 57 -25z m130 -13 c0 -10 -9 -29 -21 -42 l-21
-24 6 25 c3 14 6 33 6 43 0 9 7 17 15 17 8 0 15 -9 15 -19z m42 -46 c-16 -34
-34 -32 -26 3 10 39 15 45 27 33 7 -7 7 -18 -1 -36z m-257 -57 c35 -16 32 -23
-17 -34 -35 -7 -49 -6 -75 9 -18 11 -33 23 -33 28 0 13 95 11 125 -3z m-486
-67 c-54 -38 -179 -96 -179 -83 0 19 185 122 219 122 8 0 -10 -18 -40 -39z
m395 -3 c21 -49 6 -66 -15 -18 -22 49 -22 50 -9 50 6 0 17 -14 24 -32z m146 2
c11 -7 4 -10 -25 -10 -29 0 -36 3 -25 10 8 5 20 10 25 10 6 0 17 -5 25 -10z
m269 -1 c33 -11 41 -36 16 -45 -8 -3 -34 3 -58 15 -24 12 -53 21 -65 21 -12 0
-22 5 -22 10 0 13 89 13 129 -1z m101 -42 c0 -24 -35 -65 -45 -55 -8 7 26 78
37 78 4 0 8 -11 8 -23z m-381 -3 c20 -14 22 -22 17 -55 -8 -47 -2 -49 20 -8
19 38 27 32 59 -47 27 -65 33 -47 10 29 l-15 49 43 -7 c50 -8 41 7 -16 25 -21
6 -34 16 -31 22 11 17 83 1 125 -28 34 -23 39 -31 34 -54 -5 -23 0 -31 36 -56
44 -30 120 -117 145 -166 12 -22 12 -37 4 -68 -6 -22 -14 -40 -18 -40 -4 0
-38 11 -77 25 -38 13 -96 27 -127 31 l-57 6 -37 65 c-21 35 -77 103 -127 152
-79 78 -89 92 -83 115 5 21 12 26 39 26 18 0 43 -7 56 -16z m-508 -52 l50 -47
-39 -55 c-58 -81 -82 -134 -97 -212 -7 -38 -15 -71 -16 -73 -3 -2 -152 -95
-206 -128 -26 -16 -133 105 -133 151 0 46 72 164 146 237 65 66 213 175 236
175 5 0 32 -21 59 -48z m910 -15 c-29 -30 -34 -17 -9 23 18 29 23 32 26 16 2
-10 -5 -28 -17 -39z m-412 -94 c60 -60 107 -117 120 -145 22 -46 22 -49 6
-105 -23 -79 -81 -190 -108 -207 -31 -20 -165 -46 -275 -53 l-94 -6 -110 109
-109 109 6 58 c12 116 74 228 151 273 48 28 192 62 267 63 48 1 49 0 146 -96z
m471 84 c0 -16 -38 -53 -45 -45 -3 3 0 17 6 32 13 27 39 36 39 13z m35 -37 c6
-10 -33 -55 -41 -47 -7 6 18 57 27 57 4 0 10 -4 14 -10z"/>
<path d="M2591 2924 c-32 -41 -27 -60 8 -32 31 24 38 42 22 53 -5 3 -19 -7
-30 -21z"/>
<path d="M2890 1486 l-35 -13 50 -6 c28 -4 84 -9 125 -12 130 -11 310 -35 454
-61 148 -27 180 -25 279 13 46 19 49 35 5 25 -18 -4 -91 -7 -163 -6 -113 0
-148 5 -265 33 -113 29 -157 34 -275 37 -100 3 -150 0 -175 -10z"/>
<path d="M2470 1414 c-120 -7 -364 -35 -482 -55 -316 -53 -701 -165 -931 -272
-74 -34 -86 -43 -81 -59 3 -11 45 -99 93 -196 49 -98 112 -228 141 -289 29
-62 57 -113 61 -113 4 0 56 22 116 49 268 121 572 201 918 243 143 17 656 17
785 0 373 -49 637 -121 928 -251 49 -23 93 -41 97 -41 6 0 204 399 273 552
l30 66 -67 30 c-329 151 -794 272 -1211 317 -142 15 -542 26 -670 19z m421
-150 c16 -14 19 -31 19 -102 0 -105 -11 -122 -80 -122 l-48 0 -7 -90 -7 -90
-36 0 -35 0 6 68 c4 37 7 134 7 216 l0 149 81 -6 c57 -4 86 -10 100 -23z
m-408 -2 c12 -13 19 -57 28 -178 7 -88 9 -172 5 -187 -8 -35 -33 -44 -127 -48
l-74 -4 -12 150 c-6 83 -14 178 -17 212 l-5 62 42 4 c108 9 144 7 160 -11z
m594 4 c2 -2 -5 -80 -15 -172 -11 -93 -17 -172 -15 -176 2 -5 19 -8 37 -8 l33
0 18 175 18 175 33 0 c32 0 34 -2 34 -32 0 -18 -9 -107 -20 -198 -11 -91 -20
-173 -20 -184 0 -16 -5 -17 -32 -11 -18 4 -57 9 -87 11 -37 2 -61 9 -74 23
-19 19 -19 21 2 200 11 99 21 188 21 197 0 13 6 15 32 10 17 -3 33 -8 35 -10z
m-839 -213 c24 -221 24 -223 -25 -223 -13 0 -23 3 -23 8 0 4 -10 93 -21 199
-12 105 -19 199 -16 207 4 9 18 16 35 16 l28 0 22 -207z m1164 177 c106 -21
100 -18 96 -53 -3 -29 -6 -32 -34 -29 -29 3 -32 0 -38 -35 -4 -21 -19 -100
-33 -176 l-25 -138 -32 7 c-17 3 -32 7 -34 9 -1 1 11 73 28 161 37 195 37 194
6 194 -31 0 -36 8 -29 43 6 31 15 32 95 17z m-1350 -17 c9 -10 19 -33 23 -50
6 -29 4 -33 -13 -33 -11 0 -27 -3 -35 -6 -9 -3 -16 3 -20 17 -5 19 -11 21 -38
15 -41 -8 -39 -5 -31 -44 6 -30 17 -39 87 -75 l80 -42 12 -69 c18 -99 13 -105
-100 -125 -67 -12 -85 -7 -98 26 -18 48 -12 70 22 75 25 4 33 1 37 -14 5 -19
37 -24 60 -9 8 5 12 21 10 37 -3 25 -14 35 -82 70 -44 23 -83 51 -87 61 -17
46 -20 128 -6 147 25 34 154 47 179 19z m1616 -39 c80 -20 102 -37 102 -78 0
-45 -26 -135 -45 -156 -9 -10 -13 -24 -9 -34 4 -10 -1 -54 -11 -97 l-18 -80
-31 7 c-17 3 -33 8 -35 10 -3 3 20 104 35 156 4 13 -3 19 -28 26 -40 10 -40
10 -63 -85 -15 -63 -20 -73 -39 -73 -49 1 -49 8 -6 181 60 238 60 239 71 239
5 0 40 -7 77 -16z m-1892 -18 c7 -30 -1 -46 -24 -46 -37 0 -44 -14 -31 -64
l12 -47 38 6 c40 7 44 4 51 -39 2 -15 -6 -22 -32 -29 -19 -5 -36 -10 -37 -11
-6 -6 26 -101 33 -100 5 1 23 5 40 8 29 7 32 5 38 -25 3 -18 5 -34 3 -36 -2
-2 -30 -9 -61 -15 -52 -11 -58 -11 -75 7 -11 12 -34 84 -59 185 -46 185 -44
200 21 219 57 16 76 13 83 -13z m-255 -97 c-24 -138 -25 -126 7 -121 18 2 33
-3 45 -16 22 -24 80 -193 70 -203 -5 -4 -19 -10 -33 -14 -24 -6 -27 -2 -51 72
-25 77 -26 78 -58 76 -18 0 -35 -4 -38 -7 -3 -2 7 -39 21 -81 14 -41 26 -79
26 -84 0 -11 -58 -32 -64 -23 -7 13 -126 380 -126 390 0 6 14 15 30 21 34 11
36 8 60 -79 6 -23 13 -40 16 -37 3 2 10 37 17 77 12 71 14 74 47 85 19 7 36
11 38 10 2 -2 -2 -32 -7 -66z m2463 25 c86 -30 87 -36 19 -246 -56 -174 -60
-183 -83 -180 -14 1 -28 6 -33 11 -5 5 3 44 16 87 l25 79 -29 13 c-39 16 -44
12 -58 -45 -7 -25 -18 -61 -26 -80 -13 -31 -15 -32 -42 -21 -15 7 -29 13 -31
13 -7 4 112 352 126 368 19 21 55 22 116 1z"/>
<path d="M2780 1165 c0 -54 1 -55 29 -55 26 0 29 3 35 47 3 25 5 47 4 48 -2 1
-18 5 -35 8 l-33 7 0 -55z"/>
<path d="M2364 1113 c4 -54 9 -119 13 -145 5 -47 6 -48 41 -48 l35 0 -7 98
c-4 53 -9 118 -13 145 -5 46 -6 47 -41 47 l-35 0 7 -97z"/>
<path d="M3620 1059 c-7 -28 -11 -52 -9 -53 2 -2 18 -7 35 -10 31 -7 32 -6 44
44 7 28 11 52 9 54 -2 2 -18 6 -36 9 -31 6 -31 5 -43 -44z"/>
<path d="M3898 980 l-17 -51 26 -10 c37 -14 47 -7 62 41 14 46 9 55 -29 65
-24 6 -27 2 -42 -45z"/>
<path d="M905 729 c-60 -27 -114 -54 -119 -59 -13 -13 63 -83 118 -110 23 -11
68 -25 99 -31 l57 -12 0 -46 c0 -25 7 -71 15 -101 17 -64 19 -118 5 -154 -5
-14 -6 -27 -2 -30 16 -10 165 50 468 187 66 30 159 67 205 82 46 15 88 31 92
35 10 9 -65 70 -86 70 -30 0 -248 -81 -377 -140 -73 -33 -134 -59 -136 -57 -2
2 -49 96 -104 210 -56 114 -106 207 -113 207 -7 -1 -61 -23 -122 -51z"/>
<path d="M4245 570 c-54 -116 -103 -210 -107 -210 -5 0 -48 20 -96 44 -95 48
-337 141 -392 151 -30 5 -40 2 -75 -28 -30 -27 -36 -37 -25 -41 8 -3 58 -21
110 -39 53 -19 170 -68 260 -110 208 -94 272 -121 337 -140 l52 -16 -6 67 c-3
45 0 87 11 128 9 34 16 80 16 102 0 41 13 52 66 52 35 0 137 57 178 99 l40 41
-38 15 c-21 9 -77 34 -124 56 -46 21 -90 39 -96 39 -7 0 -56 -94 -111 -210z"/>
<path d="M1851 583 c0 -12 194 -156 264 -197 35 -21 31 -17 -143 122 -96 77
-123 93 -121 75z"/>
<path d="M3395 493 c-66 -52 -131 -104 -145 -115 l-25 -20 30 17 c44 26 214
148 255 184 20 17 29 30 20 30 -8 -1 -69 -44 -135 -96z"/>
</g>
</svg>
